<svg xmlns="http://www.w3.org/2000/svg" viewBox="0 0 180 180" fill="none" shape-rendering="auto" width="512" height="512"><desc>"Bottts" by "Pablo Stanley", licensed under "Free for personal and commercial use". / Remix of the original. - Created with dicebear.com</desc><metadata xmlns:dc="http://purl.org/dc/elements/1.1/" xmlns:cc="http://creativecommons.org/ns#" xmlns:rdf="http://www.w3.org/1999/02/22-rdf-syntax-ns#"><rdf:RDF><cc:Work><dc:title>Bottts</dc:title><dc:creator><cc:Agent rdf:about="https://twitter.com/pablostanley"><dc:title>Pablo Stanley</dc:title></cc:Agent></dc:creator><dc:source>https://bottts.com/</dc:source><cc:license rdf:resource="https://bottts.com/" /></cc:Work></rdf:RDF></metadata><mask id="viewboxMask"><rect width="180" height="180" rx="0" ry="0" x="0" y="0" fill="#fff" /></mask><g mask="url(#viewboxMask)"><g transform="translate(0 66)"><path d="M38 12c-2.95 11.7-19.9 6.67-23.37 18-3.46 11.35 8.03 20 17.53 20" stroke="#2A3544" stroke-width="6" opacity=".9"/><path d="M150 55c8.4 3.49 20.1-7.6 16-16.5-4.1-8.9-16-6.7-16-19.3" stroke="#2A3544" stroke-width="4" opacity=".9"/><mask id="sidesCables01-a" style="mask-type:alpha" maskUnits="userSpaceOnUse" x="21" y="6" width="138" height="58"><path d="M138 6a2 2 0 0 0-2 2v14c0 1.1.9 2 2 2h19a2 2 0 0 0 2-2V8a2 2 0 0 0-2-2h-19ZM21 37c0-1.1.9-2 2-2h12a2 2 0 0 1 2 2v18a2 2 0 0 1-2 2H23a2 2 0 0 1-2-2V37ZM136 44c0-1.1.9-2 2-2h19a2 2 0 0 1 2 2v18a2 2 0 0 1-2 2h-19a2 2 0 0 1-2-2V44Z" fill="#273951"/></mask><g mask="url(#sidesCables01-a)"><path d="M0 0h180v76H0V0Z" fill="#e53935"/><path d="M0 0h180v76H0V0Z" fill="#fff" fill-opacity=".3"/></g></g><g transform="translate(41)"><mask id="topPyramid-a" style="mask-type:luminance" maskUnits="userSpaceOnUse" x="18" y="8" width="64" height="44"><path fill-rule="evenodd" clip-rule="evenodd" d="m50 8 32 44H18L50 8Z" fill="#fff"/></mask><g mask="url(#topPyramid-a)"><path d="M0 0h100v52H0V0Z" fill="#e53935"/><path d="M0 0h100v52H0V0Z" fill="#fff" fill-opacity=".3"/><path fill="#fff" fill-opacity=".8" d="M50 4h30v48H50z"/></g></g><g transform="translate(25 44)"><mask id="faceRound02-a" style="mask-type:luminance" maskUnits="userSpaceOnUse" x="0" y="0" width="130" height="120"><path fill-rule="evenodd" clip-rule="evenodd" d="M0 31v-1c.18-.48.4-1.5 1-3 .83-3.06 2.78-6.56 6-10C16.7 6.6 35.17 0 65 0s48.3 6.6 58 17c3.22 3.44 5.17 6.94 6 10 .6 1.5.82 2.52 1 3v40c0-.1-.03.5 0 1a53.93 53.93 0 0 1-1 6c-1.19 6-3.4 11.91-7 17-9.72 16.34-27.74 26-57 26s-47.28-9.66-57-26C4.4 88.91 2.2 83 1 77a53.95 53.95 0 0 1-1-6c.03-.45 0-1.32 0-1V31Z" fill="#fff"/></mask><g mask="url(#faceRound02-a)"><path d="M-4-2h138v124H-4V-2Z" fill="#e53935"/><g transform="translate(-1 -1)"></g></g></g><g transform="translate(52 124)"><path d="M27.05 8.44a2 2 0 1 1 3.9-.88C31.72 10.96 34.4 13 38 13c3.6 0 6.28-2.04 7.05-5.44a2 2 0 1 1 3.9.88C47.75 13.7 43.43 17 38 17s-9.76-3.3-10.95-8.56Z" fill="#000" fill-opacity=".6"/></g><g transform="translate(38 76)"><path d="M0 10a8 8 0 0 1 8-8h88a8 8 0 0 1 8 8v18a8 8 0 0 1-8 8H82.98c-3.27.17-5.48 1.14-6.98 2.35l-1.48 1.24c-2.47 2.12-5.15 4.4-8.24 4.4H38.67c-3.14 0-5.94-2.12-8.62-4.16-.95-.72-1.89-1.44-2.82-2.04A12.38 12.38 0 0 0 21.02 36H8a8 8 0 0 1-8-8V10Z" fill="#000" fill-opacity=".8"/><mask id="eyesShade01-a" style="mask-type:alpha" maskUnits="userSpaceOnUse" x="0" y="2" width="104" height="42"><path d="M0 10a8 8 0 0 1 8-8h88a8 8 0 0 1 8 8v18a8 8 0 0 1-8 8H82.98c-3.27.17-5.48 1.14-6.98 2.35l-1.48 1.24c-2.47 2.12-5.15 4.4-8.24 4.4H38.67c-3.14 0-5.94-2.12-8.62-4.16-.95-.72-1.89-1.44-2.82-2.04A12.38 12.38 0 0 0 21.02 36H8a8 8 0 0 1-8-8V10Z" fill="#000" fill-opacity=".8"/></mask><g mask="url(#eyesShade01-a)"><path d="M12 19a5 5 0 0 1 5-5h70a5 5 0 0 1 5 5v2a5 5 0 0 1-5 5H74.98c-3.27.17-5.48 1.14-6.98 2.35l-1.48 1.24c-2 1.72-4.14 3.54-6.52 4.18V34H46.67c-3.14 0-5.94-2.13-8.62-4.17-.95-.72-1.89-1.44-2.82-2.04A12.38 12.38 0 0 0 29.02 26H17a5 5 0 0 1-5-5v-2Z" fill="#FF3D3D"/><path d="M12 44 32-2h-4L8 44h4ZM50-2H39L19 44h11L50-2Z" fill="#fff" fill-opacity=".2"/></g></g></g></svg>